<svg width="10" height="10" viewBox="0 0 10 10" fill="none" xmlns="http://www.w3.org/2000/svg">
<path fill-rule="evenodd" clip-rule="evenodd" d="M2.59668 2.50809C2.74776 1.37566 3.76617 0.5 5 0.5C6.23541 0.5 7.25485 1.37791 7.40389 2.51244C7.97864 2.53386 8.4135 2.59462 8.77954 2.78647C9.09283 2.95067 9.36177 3.17755 9.5693 3.449C9.41541 3.59153 9.25179 3.74507 9.23526 3.76077L7.7047 5.21385C6.99616 5.88651 6.48677 6.36922 6.0474 6.68748C5.61532 7.00045 5.28832 7.12598 4.94889 7.12598C4.60946 7.12598 4.28245 7.00045 3.85038 6.68748C3.41101 6.36922 2.90161 5.88651 2.19308 5.21385L0.390793 3.5028C0.60325 3.20749 0.886691 2.96141 1.22046 2.78647C1.58505 2.59538 2.02136 2.53071 2.59668 2.50809ZM3.23752 2.49797C3.31071 2.49812 3.3861 2.4985 3.46361 2.49889C3.5728 2.49943 3.68619 2.5 3.80357 2.5H6.1988C6.40088 2.5 6.58862 2.5 6.76304 2.50095C6.61419 1.70468 5.88148 1.1 5 1.1C4.11962 1.1 3.38764 1.70317 3.23752 2.49797Z" fill="#D4B373"/>
<path d="M9.87867 3.99846L8.13449 5.65434C7.44676 6.30726 6.90781 6.81893 6.43075 7.16449C5.94246 7.51818 5.48206 7.72598 4.94889 7.72598C4.41571 7.72598 3.95531 7.51818 3.46702 7.16449C2.98997 6.81894 2.45102 6.30727 1.76331 5.65437L0.0959915 4.07145C0.015119 4.32342 -0.00690032 4.59846 0.0017617 4.91802C0.0120552 5.29776 0.0672576 5.76942 0.13783 6.3724L0.140947 6.39903C0.19861 6.89175 0.243913 7.27884 0.306242 7.58946C0.369832 7.90636 0.45513 8.16652 0.605233 8.39963C0.853 8.78441 1.21445 9.09155 1.64464 9.28284C1.90525 9.39873 2.18703 9.45049 2.52581 9.47549C2.85784 9.5 3.26804 9.5 3.79016 9.5H6.20971C6.73183 9.5 7.14216 9.5 7.47419 9.47549C7.81297 9.45049 8.09475 9.39873 8.35536 9.28284C8.78555 9.09155 9.147 8.78441 9.39477 8.39963C9.54487 8.16652 9.63017 7.90636 9.69376 7.58946C9.75608 7.27887 9.80138 6.89182 9.85904 6.39918L9.86217 6.37243C9.93272 5.76958 9.98795 5.2977 9.99824 4.91802C10.0077 4.56734 9.9803 4.27026 9.87867 3.99846Z" fill="#D4B373"/>
</svg>
