<svg width="32" height="33" viewBox="0 0 32 33" fill="none" xmlns="http://www.w3.org/2000/svg">
<circle opacity="0.24" cx="16" cy="16.5" r="16" fill="#D4B373"/>
<path d="M17.3333 8H10.6667C10.2246 8 9.80072 8.17559 9.48816 8.48816C9.17559 8.80072 9 9.22464 9 9.66667V23C9 23.442 9.17559 23.866 9.48816 24.1785C9.80072 24.4911 10.2246 24.6667 10.6667 24.6667H20.6667C21.1087 24.6667 21.5326 24.4911 21.8452 24.1785C22.1577 23.866 22.3333 23.442 22.3333 23V13M17.3333 8L22.3333 13M17.3333 8L17.3333 13H22.3333M19 17.1667H12.3333M19 20.5H12.3333M14 13.8333H12.3333" stroke="#D4B373" stroke-linecap="round" stroke-linejoin="round"/>
</svg>
