<svg width="76" height="64" viewBox="0 0 76 64" fill="none" xmlns="http://www.w3.org/2000/svg">
<path d="M51.1038 45.1089L38.0141 31.996M38.0141 31.996L24.9244 45.1089M38.0141 31.996V61.5M65.4698 52.9438C68.6615 51.2007 71.1829 48.4424 72.636 45.1044C74.0891 41.7663 74.3911 38.0385 73.4944 34.5094C72.5978 30.9802 70.5534 27.8507 67.6841 25.6147C64.8148 23.3788 61.2839 22.1637 57.6487 22.1613H53.5254C52.5349 18.3233 50.6887 14.7602 48.1257 11.7398C45.5627 8.71943 42.3496 6.32042 38.7278 4.72313C35.1061 3.12584 31.17 2.37183 27.2155 2.51778C23.261 2.66374 19.391 3.70587 15.8964 5.56582C12.4018 7.42577 9.37357 10.0551 7.03938 13.2563C4.7052 16.4574 3.12578 20.1469 2.41989 24.0476C1.71399 27.9482 1.89998 31.9584 2.96388 35.7766C4.02777 39.5949 5.94188 43.1218 8.5623 46.0923" stroke="#D4B373" stroke-width="4" stroke-linecap="round" stroke-linejoin="round"/>
</svg>
