<svg width="10" height="14" viewBox="0 0 10 14" fill="none" xmlns="http://www.w3.org/2000/svg">
<path fill-rule="evenodd" clip-rule="evenodd" d="M6.738 12.0735C8.18159 10.2506 10 7.60229 10 5.8278C10 2.88534 7.76142 0.5 5 0.5C2.23858 0.5 0 2.88534 0 5.8278C0 7.60229 1.81841 10.2506 3.262 12.0735C4.01515 13.0245 4.39173 13.5 5 13.5C5.60827 13.5 5.98485 13.0245 6.738 12.0735ZM5 7.92664C3.96447 7.92664 3.125 7.09538 3.125 6.06998C3.125 5.04457 3.96447 4.21332 5 4.21332C6.03553 4.21332 6.875 5.04457 6.875 6.06998C6.875 7.09538 6.03553 7.92664 5 7.92664Z" fill="#D4B373"/>
</svg>
