<svg width="21" height="20" viewBox="0 0 21 20" fill="none" xmlns="http://www.w3.org/2000/svg">
<path d="M1.5 12H2.25H1.5ZM1.5 13H0.75H1.5ZM7.5 19V19.75V19ZM13.5 19V18.25V19ZM19.5 13H20.25H19.5ZM19.5 12H18.75H19.5ZM15.2822 18.9384L15.3995 19.6792H15.3995L15.2822 18.9384ZM19.4384 14.7822L18.6977 14.6648L19.4384 14.7822ZM1.56156 14.7822L0.820791 14.8995L0.820791 14.8995L1.56156 14.7822ZM5.71783 18.9384L5.6005 19.6792H5.6005L5.71783 18.9384ZM1.89996 8.54957C2.14873 8.21837 2.61888 8.15156 2.95007 8.40032C3.28126 8.64909 3.34808 9.11924 3.09931 9.45043L2.49963 9L1.89996 8.54957ZM17.9007 9.45043C17.6519 9.11924 17.7187 8.64909 18.0499 8.40033C18.3811 8.15156 18.8513 8.21838 19.1 8.54957L18.5004 9L17.9007 9.45043ZM9.75 1C9.75 0.585786 10.0858 0.25 10.5 0.25C10.9142 0.25 11.25 0.585786 11.25 1L10.5 1L9.75 1ZM10.5 14H9.75H10.5ZM13.9123 10.534C14.1697 10.2095 14.6414 10.155 14.966 10.4123C15.2905 10.6697 15.345 11.1414 15.0877 11.466L14.5 11L13.9123 10.534ZM13.1022 12.763L12.5145 12.297L13.1022 12.763ZM7.89785 12.763L8.48553 12.297L7.89785 12.763ZM5.91232 11.466C5.65497 11.1414 5.70946 10.6697 6.03403 10.4123C6.3586 10.155 6.83034 10.2095 7.08768 10.534L6.5 11L5.91232 11.466ZM10.7507 14.9801L10.8687 15.7208L10.8687 15.7208L10.7507 14.9801ZM10.2493 14.9801L10.1313 15.7208L10.1313 15.7208L10.2493 14.9801ZM1.5 12H2.25L2.25 13H1.5H0.75L0.75 12H1.5ZM7.5 19V18.25H13.5V19V19.75H7.5V19ZM19.5 13H18.75V12H19.5H20.25V13H19.5ZM13.5 19V18.25C14.4577 18.25 14.8492 18.2477 15.1648 18.1977L15.2822 18.9384L15.3995 19.6792C14.9378 19.7523 14.4003 19.75 13.5 19.75V19ZM19.5 13H20.25C20.25 13.9003 20.2523 14.4378 20.1792 14.8995L19.4384 14.7822L18.6977 14.6648C18.7477 14.3492 18.75 13.9577 18.75 13H19.5ZM15.2822 18.9384L15.1648 18.1977C16.9834 17.9096 18.4096 16.4834 18.6977 14.6648L19.4384 14.7822L20.1792 14.8995C19.7895 17.3599 17.8599 19.2895 15.3995 19.6792L15.2822 18.9384ZM1.5 13H2.25C2.25 13.9577 2.25233 14.3492 2.30232 14.6648L1.56156 14.7822L0.820791 14.8995C0.747672 14.4378 0.75 13.9003 0.75 13H1.5ZM7.5 19V19.75C6.59965 19.75 6.06216 19.7523 5.6005 19.6792L5.71783 18.9384L5.83515 18.1977C6.15082 18.2477 6.54233 18.25 7.5 18.25V19ZM1.56156 14.7822L2.30232 14.6648C2.59035 16.4834 4.01661 17.9096 5.83515 18.1977L5.71783 18.9384L5.6005 19.6792C3.14012 19.2895 1.21048 17.3599 0.820791 14.8995L1.56156 14.7822ZM1.5 12H0.75C0.75 10.7064 1.17806 9.51065 1.89996 8.54957L2.49963 9L3.09931 9.45043C2.56583 10.1607 2.25 11.0424 2.25 12H1.5ZM19.5 12H18.75C18.75 11.0424 18.4342 10.1607 17.9007 9.45043L18.5004 9L19.1 8.54957C19.8219 9.51065 20.25 10.7064 20.25 12H19.5ZM10.5 1L11.25 1L11.25 14H10.5H9.75L9.75 1L10.5 1ZM14.5 11L15.0877 11.466L13.6898 13.2289L13.1022 12.763L12.5145 12.297L13.9123 10.534L14.5 11ZM7.89785 12.763L7.31016 13.2289L5.91232 11.466L6.5 11L7.08768 10.534L8.48553 12.297L7.89785 12.763ZM13.1022 12.763L13.6898 13.2289C13.1438 13.9176 12.6953 14.4852 12.2945 14.8875C11.8904 15.2932 11.4418 15.6294 10.8687 15.7208L10.7507 14.9801L10.6327 14.2395C10.7388 14.2225 10.9087 14.1532 11.2318 13.8289C11.5582 13.5012 11.9457 13.0143 12.5145 12.297L13.1022 12.763ZM7.89785 12.763L8.48553 12.297C9.05429 13.0143 9.44177 13.5012 9.76822 13.8289C10.0913 14.1532 10.2612 14.2225 10.3673 14.2395L10.2493 14.9801L10.1313 15.7208C9.55816 15.6294 9.10962 15.2932 8.70551 14.8875C8.30475 14.4852 7.85616 13.9175 7.31016 13.2289L7.89785 12.763ZM10.7507 14.9801L10.8687 15.7208C10.7466 15.7402 10.6234 15.75 10.5 15.75V15V14.25C10.5441 14.25 10.5883 14.2465 10.6327 14.2395L10.7507 14.9801ZM10.5 15V15.75C10.3766 15.75 10.2534 15.7402 10.1313 15.7208L10.2493 14.9801L10.3673 14.2395C10.4117 14.2465 10.4559 14.25 10.5 14.25V15ZM10.5 14H11.25V15H10.5H9.75V14H10.5Z" fill="#D4B373"/>
</svg>
