<svg width="32" height="32" viewBox="0 0 32 32" fill="none" xmlns="http://www.w3.org/2000/svg">
<rect width="32" height="32" rx="8" fill="white"/>
<rect x="0.5" y="0.5" width="31" height="31" rx="7.5" stroke="#D4B373" stroke-opacity="0.4"/>
<g opacity="0.32">
<path d="M20.4535 17.7325C21.1332 17.1225 22.1076 16.7731 22.8332 17.3277C24.1486 18.333 25 19.9364 25 21.7432V22.5C25 23.6046 24.1046 24.5 23 24.5H9C7.89543 24.5 7 23.6046 7 22.5V21.7432C7 19.9366 7.85116 18.3333 9.1663 17.3279C9.8919 16.7732 10.8664 17.1226 11.5462 17.7326C12.7347 18.7992 14.2933 19.4459 16 19.4459C17.7066 19.4459 19.2651 18.7991 20.4535 17.7325Z" fill="#1E293B"/>
<path d="M20.95 12.5541C20.95 15.3453 18.7338 17.6081 16 17.6081C13.2662 17.6081 11.05 15.3453 11.05 12.5541C11.05 9.76278 13.2662 7.5 16 7.5C18.7338 7.5 20.95 9.76278 20.95 12.5541Z" fill="#1E293B"/>
</g>
</svg>
